<svg xmlns="http://www.w3.org/2000/svg" width="100%" height="100%" viewBox="0 0 1200 360"><defs><linearGradient id="bgGrad" x1="0%" x2="100%" y1="0%" y2="100%"><stop offset="0%" stop-color="#0a0f1d"/><stop offset="50%" stop-color="#07152b"/><stop offset="100%" stop-color="#0d1b3a"/></linearGradient><linearGradient id="shieldGrad" x1="0%" x2="100%" y1="0%" y2="100%"><stop offset="0%" stop-color="#00f2fe"/><stop offset="100%" stop-color="#4facfe"/></linearGradient><linearGradient id="textGrad" x1="0%" x2="100%" y1="0%" y2="0%"><stop offset="0%" stop-color="#fff"/><stop offset="50%" stop-color="#e0f2fe"/><stop offset="100%" stop-color="#38bdf8"/></linearGradient><linearGradient id="accentGrad" x1="0%" x2="100%" y1="0%" y2="0%"><stop offset="0%" stop-color="#38bdf8"/><stop offset="50%" stop-color="#818cf8"/><stop offset="100%" stop-color="#c084fc"/></linearGradient><filter id="glow" width="140%" height="140%" x="-20%" y="-20%"><feGaussianBlur result="blur" stdDeviation="6"/><feComposite in="SourceGraphic" in2="blur" operator="over"/></filter><filter id="shieldGlow" width="160%" height="160%" x="-30%" y="-30%"><feGaussianBlur result="blur" stdDeviation="12"/><feComposite in="SourceGraphic" in2="blur" operator="over"/></filter></defs><style>@keyframes pulseGrid{0%{opacity:.15}50%{opacity:.35}}@keyframes flowPacket1{0%{stroke-dashoffset:400}}@keyframes flowPacket2{0%{stroke-dashoffset:0}}@keyframes shieldPulse{0%{transform:scale(1);opacity:.9}50%{transform:scale(1.03);opacity:1;filter:drop-shadow(0 0 15px #38bdf8)}}@keyframes scanline{0%{transform:translateY(-100px);opacity:0}50%{opacity:.4}}@keyframes floatParticle{0%{transform:translateY(0) translateX(0);opacity:.3}50%{transform:translateY(-15px) translateX(10px);opacity:.8}}.grid-bg{animation:pulseGrid 6s ease-in-out infinite}.packet-line-1{stroke-dasharray:20 200;animation:flowPacket1 3s linear infinite}.packet-line-2{stroke-dasharray:30 180;animation:flowPacket2 4s linear infinite}.shield-icon{transform-origin:1020px 180px;animation:shieldPulse 4s ease-in-out infinite}.scan-bar{animation:scanline 8s linear infinite}.p1{animation:floatParticle 5s ease-in-out infinite}.p2{animation:floatParticle 7s ease-in-out infinite 1s}.p3{animation:floatParticle 6s ease-in-out infinite 2s}.badge-pill,.subtitle-text,.title-text{font-family:-apple-system,BlinkMacSystemFont,&quot;Segoe UI&quot;,Roboto,Helvetica,Arial,sans-serif}.title-text{font-weight:800;font-size:46px;fill:url(#textGrad)}.subtitle-text{font-weight:500;font-size:20px;fill:#94a3b8}.badge-pill{font-weight:600;font-size:13px;fill:#38bdf8}</style><rect width="1200" height="360" fill="url(#bgGrad)" rx="16"/><g stroke="#38bdf8" stroke-width="1" class="grid-bg"><path stroke-opacity=".15" d="M 0,60 L 1200,60 M 0,120 L 1200,120 M 0,180 L 1200,180 M 0,240 L 1200,240 M 0,300 L 1200,300"/><path stroke-opacity=".15" d="M 150,0 L 150,360 M 300,0 L 300,360 M 450,0 L 450,360 M 600,0 L 600,360 M 750,0 L 750,360 M 900,0 L 900,360 M 1050,0 L 1050,360"/></g><g stroke-linecap="round"><path fill="none" stroke="#38bdf8" stroke-opacity=".2" stroke-width="2" d="M 50,80 Q 300,20 600,80 T 1150,80"/><path fill="none" stroke="#00f2fe" stroke-width="3" d="M 50,80 Q 300,20 600,80 T 1150,80" class="packet-line-1" filter="url(#glow)"/><path fill="none" stroke="#818cf8" stroke-opacity=".2" stroke-width="2" d="M 50,280 Q 400,340 700,280 T 1150,280"/><path fill="none" stroke="#818cf8" stroke-width="3" d="M 50,280 Q 400,340 700,280 T 1150,280" class="packet-line-2" filter="url(#glow)"/></g><rect width="1200" height="2" x="0" y="0" fill="#38bdf8" class="scan-bar" filter="url(#glow)" opacity=".5"/><circle cx="120" cy="100" r="3" fill="#38bdf8" class="p1"/><circle cx="480" cy="240" r="4" fill="#818cf8" class="p2"/><circle cx="750" cy="90" r="3" fill="#00f2fe" class="p3"/><circle cx="320" cy="290" r="3" fill="#c084fc" class="p1"/><g class="shield-icon"><path fill="none" stroke="url(#shieldGrad)" stroke-width="4" d="M 1020,90 L 1100,125 V 195 C 1100,240 1020,270 1020,270 C 1020,270 940,240 940,195 V 125 Z" filter="url(#shieldGlow)" opacity=".6"/><path fill="#07152b" stroke="url(#shieldGrad)" stroke-width="3" d="M 1020,105 L 1085,133 V 190 C 1085,228 1020,252 1020,252 C 1020,252 955,228 955,190 V 133 Z"/><path fill="none" stroke="#38bdf8" stroke-linecap="round" stroke-width="3.5" d="M 1008,180 V 170 C 1008,163 1013,158 1020,158 C 1027,158 1032,163 1032,170 V 180"/><rect width="36" height="28" x="1002" y="180" fill="url(#shieldGrad)" rx="5"/><circle cx="1020" cy="192" r="3" fill="#07152b"/></g><g transform="translate(80, 0)"><g transform="translate(0, 72)"><rect width="210" height="32" fill="#0f2744" stroke="#1e40af" stroke-width="1.5" rx="16"/><circle cx="18" cy="16" r="5" fill="#10b981"/><text x="32" y="21" class="badge-pill">LAYER 7 DEFENSE &amp; WAAP</text></g><text x="0" y="155" class="title-text" filter="drop-shadow(0 2px 8px rgba(0,0,0,0.8))">Awesome Web Application Firewall</text><rect width="460" height="4" x="0" y="175" fill="url(#accentGrad)" rx="2"/><text x="0" y="222" class="subtitle-text">Curated SaaS Platforms &amp; Open-Source WAF Engines</text><g transform="translate(0, 255)"><rect width="130" height="28" fill="#1e293b" stroke="#334155" rx="6"/><text x="14" y="18" fill="#38bdf8" font-family="sans-serif" font-size="12" font-weight="600">🛡️ OWASP CRS v4</text><rect width="145" height="28" x="142" fill="#1e293b" stroke="#334155" rx="6"/><text x="156" y="18" fill="#a7f3d0" font-family="sans-serif" font-size="12" font-weight="600">⚡ ModSecurity &amp; Go</text><rect width="150" height="28" x="299" fill="#1e293b" stroke="#334155" rx="6"/><text x="313" y="18" fill="#fef08a" font-family="sans-serif" font-size="12" font-weight="600">☁️ Cloud WAF Comparison</text></g></g></svg>